#!OML:ASF G:\JayActor3\Patient Classification 1\Patient 1\Session 2\male.ASF
:FULLY-SPECIFIED
:DEGREES
911
root -0.660941 15.7591 -13.2501 -672.426 75.6579 47.0377
lowerback 13.8418 1.9085 -4.04718
upperback 3.97705 2.0435 -2.48214
thorax -3.60022 1.10727 -0.663545
lowerneck -6.09708 -3.87228 -4.22725
upperneck -4.98598 -4.59284 9.44234
head -0.172596 -2.16937 3.71727
rclavicle 4.17448e-015 -7.95139e-016
rhumerus -35.1861 29.3428 -101.431
rradius 64.5971
rwrist -15.3712
rhand -17.7264 8.6577
rfingers 7.12502
rthumb 8.53436 -21.1498
lclavicle 4.17448e-015 -7.95139e-016
lhumerus -30.8052 -9.38549 88.0628
lradius 45.4431
lwrist 15.4358
lhand -35.525 26.1802
lfingers 7.12502
lthumb -8.65143 55.9829
rfemur -20.1625 -11.2314 16.3117
rtibia 85.3799
rfoot -13.811 -13.0175
rtoes 10.8339
lfemur -29.1997 4.23897 -27.8482
ltibia 47.2382
lfoot -16.0698 1.91984
ltoes -17.121
912
root -0.436152 15.7808 -13.157 -673.946 75.8256 45.6206
lowerback 14.0034 1.56638 -4.24545
upperback 3.92846 1.55194 -2.47167
thorax -3.73399 0.866447 -0.463922
lowerneck -6.17599 -3.63074 -4.21051
upperneck -5.00647 -4.26192 9.52572
head -0.188141 -2.00166 3.7521
rclavicle 1.98785e-016 1.35174e-014
rhumerus -35.9357 28.6963 -100.733
rradius 64.8383
rwrist -15.6849
rhand -17.8413 8.68586
rfingers 7.12502
rthumb 8.42345 -21.1262
lclavicle 1.98785e-016 1.35174e-014
lhumerus -29.0098 -10.3909 87.5023
lradius 47.136
lwrist 15.2321
lhand -35.3505 26.0264
lfingers 7.12502
lthumb -8.48299 55.836
rfemur -22.9423 -10.7008 15.8408
rtibia 86.2745
rfoot -15.9187 -13.4461
rtoes 10.9962
lfemur -27.9528 4.24078 -27.1613
ltibia 47.0867
lfoot -16.7977 2.28614
ltoes -17.7369
913
root -0.20602 15.8065 -13.0628 -675.796 75.841 43.8408
lowerback 14.0624 1.26607 -4.50512
upperback 3.88278 1.11237 -2.45601
thorax -3.80755 0.65095 -0.228372
lowerneck -6.2693 -3.36263 -4.17772
upperneck -5.02614 -3.89659 9.57552
head -0.205036 -1.81674 3.77275
rclavicle 1.26228e-014 5.1684e-015
rhumerus -36.6982 28.2145 -100.024
rradius 65.0702
rwrist -15.9406
rhand -17.9349 8.72665
rfingers 7.12502
rthumb 8.33314 -21.089
lclavicle 1.26228e-014 5.1684e-015
lhumerus -27.5242 -11.4222 86.8392
lradius 49.1492
lwrist 15.0162
lhand -34.9472 25.7505
lfingers 7.12502
lthumb -8.09378 55.5756
rfemur -25.6013 -10.0553 15.2944
rtibia 86.5535
rfoot -17.8524 -13.7458
rtoes 11.0394
lfemur -26.594 4.35399 -26.5232
ltibia 46.764
lfoot -17.506 2.71023
ltoes -18.3901
914
root 0.0299642 15.836 -12.9674 -677.852 75.69 41.8506
lowerback 14.0343 1.00387 -4.83992
upperback 3.85424 0.718877 -2.44495
thorax -3.81334 0.457781 0.0392128
lowerneck -6.40692 -3.07332 -4.1438
upperneck -5.02513 -3.50364 9.6115
head -0.2101 -1.61662 3.7882
rclavicle 9.44227e-015 1.43125e-014
rhumerus -37.4457 27.914 -99.311
rradius 65.2685
rwrist -16.1077
rhand -18.0217 8.76348
rfingers 7.12502
rthumb 8.24935 -21.0555
lclavicle 9.44227e-015 1.43125e-014
lhumerus -26.3255 -12.4799 86.0687
lradius 51.4624
lwrist 14.8982
lhand -34.4134 25.4031
lfingers 7.12502
lthumb -7.57859 55.2473
rfemur -28.0832 -9.31239 14.6695
rtibia 86.2322
rfoot -19.6328 -13.9924
rtoes 10.9158
lfemur -25.0781 4.51478 -25.9604
ltibia 46.2451
lfoot -18.1773 3.21336
ltoes -18.9363
915
root 0.272006 15.8694 -12.8715 -679.966 75.4093 39.8318
lowerback 13.9651 0.764957 -5.2173
upperback 3.84647 0.354657 -2.4447
thorax -3.77105 0.278577 0.314587
lowerneck -6.59386 -2.76766 -4.10987
upperneck -5.00196 -3.08935 9.64208
head -0.201217 -1.40417 3.80163
rclavicle -3.63776e-014 -7.55382e-015
rhumerus -38.1742 27.786 -98.6047
rradius 65.4334
rwrist -16.2191
rhand -18.1526 8.86642
rfingers 7.12502
rthumb 8.12306 -20.9575
lclavicle -3.63776e-014 -7.55382e-015
lhumerus -25.3852 -13.5876 85.1921
lradius 54.0236
lwrist 14.9797
lhand -33.9059 24.9617
lfingers 7.12502
lthumb -7.08869 54.823
rfemur -30.3193 -8.51769 13.99
rtibia 85.3272
rfoot -21.3019 -14.2269
rtoes 10.7604
lfemur -23.3735 4.64499 -25.4765
ltibia 45.5179
lfoot -18.7736 3.83099
ltoes -19.3862
916
root 0.519545 15.9074 -12.7747 -682.171 75.0168 37.7518
lowerback 13.8839 0.556086 -5.60143
upperback 3.85096 0.0314236 -2.45029
thorax -3.70626 0.118997 0.579739
lowerneck -6.83053 -2.45497 -4.07646
upperneck -4.95439 -2.66667 9.66506
head -0.176608 -1.18584 3.81238
rclavicle 2.68359e-015 -3.00165e-014
rhumerus -38.892 27.812 -97.911
rradius 65.5637
rwrist -16.2898
rhand -18.2885 9.02142
rfingers 7.12502
rthumb 7.9919 -20.8075
lclavicle 2.68359e-015 -3.00165e-014
lhumerus -24.6507 -14.7573 84.2131
lradius 56.7556
lwrist 15.2297
lhand -33.4675 24.5113
lfingers 7.12502
lthumb -6.66555 54.3864
rfemur -32.287 -7.66628 13.3131
rtibia 83.8644
rfoot -22.8722 -14.4911
rtoes 10.6012
lfemur -21.4891 4.72242 -25.0492
ltibia 44.5873
lfoot -19.2577 4.56578
ltoes -19.6675
917
root 0.771864 15.95 -12.6769 -684.45 74.5527 35.6358
lowerback 13.8302 0.377494 -5.95257
upperback 3.85596 -0.248808 -2.45455
thorax -3.65407 -0.0195042 0.819292
lowerneck -7.09365 -2.1424 -4.04587
upperneck -4.89008 -2.24531 9.67801
head -0.142026 -0.96723 3.8204
rclavicle -1.54555e-014 9.93923e-015
rhumerus -39.6211 27.9593 -97.2408
rradius 65.6723
rwrist -16.3556
rhand -18.429 9.17296
rfingers 7.12502
rthumb 7.85632 -20.6611
lclavicle -1.54555e-014 9.93923e-015
lhumerus -24.0801 -15.9991 83.1529
lradius 59.5861
lwrist 15.6542
lhand -33.0782 24.113
lfingers 7.12502
lthumb -6.2897 53.9996
rfemur -33.955 -6.78521 12.6851
rtibia 81.8745
rfoot -24.3303 -14.7532
rtoes 10.4971
lfemur -19.4371 4.72484 -24.6577
ltibia 43.4641
lfoot -19.6177 5.4083
ltoes -19.7178
918
root 1.02797 15.9969 -12.5772 -686.777 74.0591 33.4942
lowerback 13.8132 0.22527 -6.23737
upperback 3.84788 -0.489013 -2.45027
thorax -3.63554 -0.137963 1.02322
lowerneck -7.36721 -1.83617 -4.01443
upperneck -4.80945 -1.83471 9.6706
head -0.0998191 -0.753723 3.82138
rclavicle -2.29596e-014 -1.15295e-014
rhumerus -40.3796 28.1953 -96.6002
rradius 65.7726
rwrist -16.473
rhand -18.4962 9.26156
rfingers 7.12502
rthumb 7.79146 -20.5749
lclavicle -2.29596e-014 -1.15295e-014
lhumerus -23.6304 -17.3234 82.0313
lradius 62.4568
lwrist 16.2263
lhand -32.8045 23.7289
lfingers 7.12502
lthumb -6.02547 53.6232
rfemur -35.326 -5.90841 12.1528
rtibia 79.404
rfoot -25.6211 -14.9427
rtoes 10.3348
lfemur -17.255 4.65218 -24.2766
ltibia 42.1713
lfoot -19.8216 6.36744
ltoes -19.7848
919
root 1.28762 16.0468 -12.4747 -689.135 73.5577 31.3305
lowerback 13.8104 0.0999278 -6.44697
upperback 3.82814 -0.68566 -2.43089
thorax -3.63864 -0.234918 1.19344
lowerneck -7.63511 -1.54211 -3.98298
upperneck -4.7205 -1.44263 9.63501
head -0.054758 -0.549893 3.81268
rclavicle -1.97294e-014 -2.3556e-014
rhumerus -41.1776 28.4976 -95.9893
rradius 65.8752
rwrist -16.6586
rhand -18.4578 9.23733
rfingers 7.12502
rthumb 7.8285 -20.5977
lclavicle -1.97294e-014 -2.3556e-014
lhumerus -23.2604 -18.6854 80.8647
lradius 65.3237
lwrist 16.8404
lhand -32.501 23.4123
lfingers 7.12502
lthumb -5.73246 53.3148
rfemur -36.4074 -5.057 11.7389
rtibia 76.5127
rfoot -26.6587 -14.9772
rtoes 9.98511
lfemur -14.9739 4.53368 -23.8885
ltibia 40.7376
lfoot -19.9107 7.37227
ltoes -19.7083
920
root 1.55071 16.0976 -12.3689 -691.51 73.0529 29.1419
lowerback 13.7854 0.00237034 -6.5783
upperback 3.80177 -0.833773 -2.39516
thorax -3.63992 -0.308644 1.32882
lowerneck -7.88914 -1.26614 -3.95305
upperneck -4.62304 -1.07718 9.56966
head -0.0074372 -0.360124 3.79377
rclavicle -1.80646e-014 3.32964e-015
rhumerus -42.0149 28.8471 -95.4089
rradius 65.9797
rwrist -16.8899
rhand -18.3148 9.09933
rfingers 7.12502
rthumb 7.96648 -20.7305
lclavicle -1.80646e-014 3.32964e-015
lhumerus -22.9512 -20.043 79.6726
lradius 68.1612
lwrist 17.4033
lhand -32.0799 23.1924
lfingers 7.12502
lthumb -5.32584 53.1055
rfemur -37.2255 -4.25631 11.4548
rtibia 73.2832
rfoot -27.356 -14.7809
rtoes 9.16886
lfemur -12.6359 4.40046 -23.4833
ltibia 39.207
lfoot -19.9046 8.38868
ltoes -19.5403
921
root 1.81746 16.1471 -12.2599 -693.901 72.5272 26.9238
lowerback 13.7061 -0.0653798 -6.63581
upperback 3.77531 -0.928096 -2.34817
thorax -3.61624 -0.357283 1.42539
lowerneck -8.12021 -1.00876 -3.92551
upperneck -4.51485 -0.739199 9.47811
head 0.0414917 -0.18511 3.76599
rclavicle 3.08365e-014 -3.40419e-015
rhumerus -42.8755 29.236 -94.8616
rradius 66.0787
rwrist -17.1541
rhand -18.0811 8.90097
rfingers 7.12502
rthumb 8.19208 -20.9202
lclavicle 3.08365e-014 -3.40419e-015
lhumerus -22.7085 -21.3548 78.4774
lradius 70.965
lwrist 17.9218
lhand -31.5414 23.0445
lfingers 7.12502
lthumb -4.80592 52.97
rfemur -37.8106 -3.52363 11.3006
rtibia 69.8133
rfoot -27.683 -14.2664
rtoes 7.71849
lfemur -10.2777 4.28151 -23.0619
ltibia 37.6384
lfoot -19.8127 9.40949
ltoes -19.4084
922
root 2.08781 16.1936 -12.1479 -696.3 71.9547 24.6846
lowerback 13.556 -0.0996982 -6.63004
upperback 3.75432 -0.963609 -2.29645
thorax -3.5536 -0.378732 1.48115
lowerneck -8.32662 -0.770938 -3.90229
upperneck -4.3856 -0.430432 9.37069
head 0.0953749 -0.0255859 3.73324
rclavicle -4.37326e-015 -3.52843e-015
rhumerus -43.7407 29.6545 -94.3504
rradius 66.1612
rwrist -17.3949
rhand -17.7892 8.69093
rfingers 7.12502
rthumb 8.47376 -21.1191
lclavicle -4.37326e-015 -3.52843e-015
lhumerus -22.5497 -22.5829 77.297
lradius 73.7354
lwrist 18.3936
lhand -30.876 22.9697
lfingers 7.12502
lthumb -4.16337 52.9087
rfemur -38.1887 -2.86986 11.2754
rtibia 66.2114
rfoot -27.676 -13.39
rtoes 5.61559
lfemur -7.94 4.1833 -22.6347
ltibia 36.1104
lfoot -19.6187 10.4609
ltoes -19.4631
923
root 2.36012 16.2368 -12.0329 -698.621 71.3496 22.503
lowerback 13.344 -0.111282 -6.5738
upperback 3.7314 -0.957913 -2.2471
thorax -3.46342 -0.381067 1.49891
lowerneck -8.50681 -0.553117 -3.88239
upperneck -4.22213 -0.152202 9.26252
head 0.158374 0.118021 3.7006
rclavicle -2.04748e-014 -7.45443e-015
rhumerus -44.5871 30.0942 -93.8878
rradius 66.2129
rwrist -17.5781
rhand -17.5503 8.57677
rfingers 7.12502
rthumb 8.70433 -21.2238
lclavicle -2.04748e-014 -7.45443e-015
lhumerus -22.5057 -23.712 76.1529
lradius 76.4734
lwrist 18.8617
lhand -30.1517 22.9153
lfingers 7.12502
lthumb -3.46398 52.8669
rfemur -38.392 -2.33213 11.376
rtibia 62.5873
rfoot -27.4445 -12.1459
rtoes 3.12842
lfemur -5.69329 4.06261 -22.2211
ltibia 34.7092
lfoot -19.2775 11.5723
ltoes -19.8146
924
root 2.63294 16.2771 -11.915 -700.771 70.7351 20.4567
lowerback 13.0719 -0.113513 -6.48156
upperback 3.69546 -0.932268 -2.21074
thorax -3.35665 -0.374114 1.47929
lowerneck -8.66543 -0.354899 -3.85744
upperneck -4.01091 0.0948382 9.17018
head 0.235717 0.245814 3.67236
rclavicle 4.75841e-014 1.45113e-014
rhumerus -45.3869 30.5384 -93.4886
rradius 66.2045
rwrist -17.6719
rhand -17.32 8.55103
rfingers 7.12502
rthumb 8.92653 -21.2401
lclavicle 4.75841e-014 1.45113e-014
lhumerus -22.6 -24.7402 75.0563
lradius 79.1622
lwrist 19.3132
lhand -29.4635 22.8452
lfingers 7.12502
lthumb -2.79934 52.8066
rfemur -38.4594 -1.93758 11.5918
rtibia 59.0454
rfoot -27.097 -10.6378
rtoes 0.66364
lfemur -3.61943 3.88841 -21.8418
ltibia 33.5228
lfoot -18.76 12.7332
ltoes -20.4236
